<svg width="170" height="158" viewBox="0 0 170 158" fill="none" xmlns="http://www.w3.org/2000/svg">
<path d="M52.5903 157.938C54.4395 157.363 56.1461 156.402 57.5978 155.118C59.0495 153.833 60.2132 152.255 61.0121 150.487C64.2101 144.053 66.9822 137.416 69.3102 130.617C74.7348 115.964 79.5155 101.111 84.1723 86.2093C88.8291 71.3073 93.4116 56.4053 98.6628 41.7516C101.14 34.8719 103.988 28.1411 106.416 21.2613C108.636 14.114 111.3 7.11288 114.392 0.299163L112.41 0.820737C118.405 4.74494 116.052 17.4365 114.268 22.8261C111.402 30.1854 107.65 37.1664 103.097 43.6144C94.2785 57.2994 83.5282 71.6053 69.8303 80.6956C68.9881 81.2668 71.0193 81.0185 71.3908 80.6956C85.2869 71.4812 96.1611 57.1007 105.103 43.1922C109.785 35.9398 115.011 28.1659 117.092 19.6966C118.405 14.4064 119.767 3.62728 114.342 0.0756327C113.994 -0.0236566 113.625 -0.0252148 113.275 0.0711228C112.926 0.167461 112.61 0.358009 112.361 0.622043C109.586 6.55153 107.227 12.6679 105.301 18.9267C103.072 25.4339 100.347 31.7673 98.0188 38.2248C93.0648 51.587 88.8043 65.1726 84.5686 78.7583C80.3329 92.344 76.3201 105.334 71.7376 118.497C69.4092 125.203 67.0313 131.934 64.3066 138.54C61.9782 144.352 59.0305 155.181 52.3425 157.242C51.1783 157.615 51.327 158.261 52.5159 157.888L52.5903 157.938Z" fill="#244183"/>
<path d="M29.7769 83.1792C30.9257 83.0561 32.0379 82.7012 33.0465 82.1361C35.5127 80.4943 38.4372 79.6851 41.3941 79.8263C44.0693 79.9753 46.6949 79.6773 49.3454 79.8263C50.8443 79.9296 52.3503 79.8461 53.8288 79.5779C57.2968 79.3652 60.7765 79.4399 64.2322 79.8015C66.1152 79.6077 67.9741 79.225 69.7808 78.659C73.2239 78.0877 75.5522 79.3296 78.7724 79.3792C80.9839 79.2918 83.167 78.8473 85.2374 78.0629C85.931 77.8394 86.6246 77.5165 87.3181 77.3675C91.6034 76.1753 94.4519 77.0446 95.9134 79.8511C96.903 80.5248 98.0885 80.8481 99.2821 80.7701C102.378 80.472 104.36 77.9635 106.961 76.6472C110.924 74.6603 112.485 76.9701 115.383 78.4603C117.21 79.2701 119.221 79.5704 121.204 79.3296C127.582 78.7702 133.879 77.5041 139.98 75.5544C141.193 75.2563 140.995 74.4367 139.781 74.7596C135.67 75.8276 131.558 76.9949 127.396 77.7152C125.002 78.2686 122.534 78.4279 120.089 78.1871C118.308 77.8552 116.618 77.1437 115.135 76.1008C114.139 75.3696 112.979 74.8944 111.756 74.7169C110.534 74.5393 109.288 74.6649 108.125 75.0825C106.891 75.5661 105.725 76.2089 104.657 76.9949C102.527 78.4354 100.768 80.5466 97.4243 78.1871C96.8299 77.7649 96.6069 76.5478 95.9134 76.0263C93.684 74.3622 90.3896 75.4302 88.0117 76.0263C86.5502 76.4485 85.1383 77.0943 83.6521 77.442C81.0166 77.7512 78.3487 77.6338 75.7504 77.0943C74.3438 76.9207 72.9213 76.9207 71.5147 77.0943C68.312 77.6846 65.0395 77.7935 61.8048 77.4171C60.343 77.2512 58.8646 77.3099 57.4204 77.591C51.3396 78.2281 45.2157 78.3445 39.1152 77.9387C35.3254 77.9387 33.641 81.3165 30.1732 81.8629C29.2815 82.0119 28.3897 83.0054 29.8512 82.7819L29.7769 83.1792Z" fill="#244183"/>
<path d="M146.866 81.093C158.433 77.9635 177.036 57.821 167.252 45.502C158.582 34.5738 137.329 35.3438 125.142 37.0078C104.831 39.7647 85.5099 48.6314 67.3533 57.8707C48.4288 67.356 30.7418 79.1429 14.6918 92.9649C9.31666 97.6342 2.45532 103.272 0.424162 110.351C-1.87947 118.447 5.65067 121.13 12.1405 121.999C12.7845 121.999 14.6175 121.03 13.4037 120.881C10.2331 120.459 6.26993 120.037 3.94153 117.578C1.61313 115.119 1.8856 111.121 3.32227 107.991C6.02223 102.179 11.1992 97.6839 15.9551 93.5361C28.6088 82.5702 42.3256 72.9019 56.9002 64.6759C72.6601 55.4454 89.3489 47.9112 106.688 42.1987C121.551 37.5791 137.973 35.2196 153.232 39.417C161.703 41.7268 169.407 46.868 167.276 56.8027C165.22 66.2903 155.981 77.4171 146.618 79.9505C145.38 80.2982 145.652 81.3165 146.891 80.9688L146.866 81.093Z" fill="#244183"/>
</svg>
